<svg id="visual" viewBox="0 0 900 600" width="900" height="600" xmlns="http://www.w3.org/2000/svg" xmlns:xlink="http://www.w3.org/1999/xlink" version="1.1"><rect x="0" y="0" width="900" height="600" fill="#14213d"></rect><g fill="none" stroke="#203156" stroke-width="2"><circle r="20" cx="601" cy="570"></circle><circle r="5" cx="335" cy="404"></circle><circle r="12" cx="828" cy="72"></circle><circle r="13" cx="260" cy="341"></circle><circle r="5" cx="136" cy="167"></circle><circle r="4" cx="838" cy="364"></circle><circle r="15" cx="81" cy="183"></circle><circle r="10" cx="586" cy="161"></circle><circle r="14" cx="52" cy="497"></circle><circle r="11" cx="39" cy="86"></circle><circle r="7" cx="661" cy="129"></circle><circle r="13" cx="107" cy="352"></circle><circle r="14" cx="733" cy="553"></circle><circle r="8" cx="364" cy="334"></circle><circle r="11" cx="812" cy="479"></circle><circle r="4" cx="216" cy="22"></circle><circle r="13" cx="443" cy="101"></circle><circle r="17" cx="677" cy="438"></circle><circle r="11" cx="480" cy="524"></circle><circle r="14" cx="10" cy="252"></circle><circle r="17" cx="648" cy="244"></circle><circle r="17" cx="667" cy="83"></circle><circle r="5" cx="844" cy="410"></circle><circle r="5" cx="610" cy="91"></circle><circle r="8" cx="473" cy="410"></circle><circle r="10" cx="541" cy="435"></circle><circle r="12" cx="581" cy="269"></circle><circle r="10" cx="126" cy="445"></circle><circle r="10" cx="385" cy="45"></circle><circle r="5" cx="104" cy="129"></circle><circle r="15" cx="758" cy="368"></circle><circle r="7" cx="758" cy="109"></circle><circle r="13" cx="843" cy="303"></circle><circle r="15" cx="621" cy="432"></circle><circle r="8" cx="108" cy="564"></circle><circle r="4" cx="416" cy="146"></circle><circle r="9" cx="639" cy="376"></circle><circle r="16" cx="256" cy="96"></circle><circle r="14" cx="299" cy="140"></circle><circle r="18" cx="51" cy="336"></circle><circle r="18" cx="221" cy="494"></circle><circle r="10" cx="672" cy="594"></circle><circle r="12" cx="302" cy="435"></circle><circle r="9" cx="180" cy="387"></circle><circle r="15" cx="722" cy="483"></circle><circle r="5" cx="548" cy="43"></circle><circle r="5" cx="788" cy="205"></circle><circle r="17" cx="328" cy="97"></circle><circle r="17" cx="791" cy="416"></circle><circle r="14" cx="275" cy="477"></circle><circle r="8" cx="267" cy="11"></circle><circle r="13" cx="111" cy="57"></circle><circle r="18" cx="288" cy="599"></circle><circle r="12" cx="496" cy="589"></circle><circle r="18" cx="553" cy="207"></circle><circle r="16" cx="537" cy="145"></circle><circle r="5" cx="254" cy="392"></circle><circle r="16" cx="186" cy="451"></circle><circle r="8" cx="274" cy="522"></circle><circle r="13" cx="627" cy="33"></circle><circle r="16" cx="806" cy="147"></circle><circle r="17" cx="644" cy="189"></circle><circle r="4" cx="15" cy="423"></circle><circle r="14" cx="270" cy="237"></circle><circle r="15" cx="681" cy="316"></circle><circle r="9" cx="556" cy="367"></circle><circle r="4" cx="892" cy="118"></circle><circle r="8" cx="578" cy="516"></circle><circle r="7" cx="618" cy="325"></circle><circle r="16" cx="186" cy="232"></circle><circle r="6" cx="524" cy="259"></circle><circle r="6" cx="403" cy="254"></circle><circle r="4" cx="436" cy="192"></circle><circle r="5" cx="810" cy="12"></circle><circle r="6" cx="355" cy="591"></circle><circle r="5" cx="107" cy="253"></circle><circle r="11" cx="767" cy="587"></circle><circle r="6" cx="472" cy="325"></circle><circle r="12" cx="313" cy="209"></circle><circle r="8" cx="874" cy="230"></circle><circle r="10" cx="368" cy="467"></circle><circle r="8" cx="688" cy="260"></circle><circle r="5" cx="155" cy="548"></circle><circle r="12" cx="727" cy="162"></circle><circle r="14" cx="563" cy="88"></circle></g></svg>